
 
<svg version="1.0" xmlns="http://www.w3.org/2000/svg"
 width="922.000000pt" height="157.000000pt" viewBox="0 0 922.000000 157.000000"
 preserveAspectRatio="xMidYMid meet">

<g transform="translate(0.000000,157.000000) scale(0.100000,-0.100000)"
fill="#000000" stroke="none">
<path d="M420 1101 c0 -177 2 -212 16 -225 8 -9 20 -16 25 -16 6 0 21 -11 35
-25 14 -14 31 -25 38 -25 8 0 16 -7 20 -15 3 -8 14 -15 25 -15 11 0 22 -9 26
-19 3 -11 16 -23 28 -27 12 -4 32 -17 44 -30 12 -13 25 -24 28 -24 6 0 13 -6
58 -45 l27 -24 0 -175 c0 -96 3 -181 6 -190 5 -12 21 -16 65 -16 l59 0 0 215
c0 206 -1 215 -19 215 -11 0 -22 9 -26 19 -3 11 -16 23 -28 27 -11 4 -27 13
-35 20 -7 8 -20 14 -27 14 -8 0 -16 9 -20 19 -3 11 -16 23 -28 27 -12 4 -32
17 -44 30 -12 13 -27 24 -33 24 -6 0 -21 11 -34 25 -13 14 -26 25 -30 25 -3 0
-15 8 -26 17 -19 16 -20 29 -20 210 l0 193 -65 0 -65 0 0 -209z"/>
<path d="M790 1151 l0 -159 35 -36 c19 -20 39 -36 44 -36 6 0 21 -11 34 -24
13 -13 33 -27 45 -30 11 -4 24 -16 27 -27 4 -10 12 -19 19 -19 7 0 23 -9 36
-20 13 -11 29 -20 36 -20 7 0 15 -9 19 -19 3 -11 16 -23 28 -27 12 -4 37 -23
56 -43 l34 -36 124 -3 123 -4 0 46 0 46 -100 0 c-55 0 -100 4 -100 9 0 14 -48
61 -63 61 -8 0 -22 11 -33 24 -10 14 -28 27 -40 30 -13 4 -26 15 -29 26 -3 11
-12 20 -19 20 -7 0 -23 9 -36 20 -13 11 -29 20 -36 20 -7 0 -16 9 -19 20 -3
11 -17 23 -31 26 l-24 6 0 154 0 154 -65 0 -65 0 0 -159z"/>
<path d="M1060 1210 l0 -100 65 0 65 0 0 100 0 100 -65 0 -65 0 0 -100z"/>
<path d="M1330 1155 l0 -155 60 0 60 0 0 155 0 155 -60 0 -60 0 0 -155z"/>
<path d="M2170 1300 c0 -5 -9 -10 -20 -10 -10 0 -41 -21 -67 -47 l-48 -46 0
-205 c0 -155 3 -206 13 -209 6 -3 12 -12 12 -21 0 -19 46 -62 67 -62 7 0 13
-4 13 -10 0 -5 11 -10 25 -10 14 0 25 -4 25 -10 0 -6 123 -10 350 -10 l350 0
0 -120 0 -120 -335 0 -335 0 0 50 0 50 -96 0 -96 0 4 -88 c3 -85 8 -100 46
-135 7 -7 21 -20 30 -29 9 -10 27 -18 39 -18 13 0 23 -4 23 -10 0 -6 138 -10
395 -10 225 0 395 4 395 9 0 5 12 12 26 15 28 7 84 57 84 74 0 6 6 12 13 14 9
4 12 52 12 198 0 146 -3 194 -12 197 -7 3 -13 11 -13 19 0 17 -67 84 -85 84
-7 0 -15 6 -17 13 -4 9 -90 13 -376 15 l-372 3 0 119 0 120 335 0 335 0 0 -45
0 -45 106 0 107 0 -5 82 c-3 49 -10 84 -16 86 -7 2 -12 10 -12 18 0 18 -48 64
-66 64 -8 0 -14 5 -14 10 0 6 -7 10 -15 10 -8 0 -15 5 -15 10 0 6 -138 10
-395 10 -257 0 -395 -4 -395 -10z"/>
<path d="M3360 1210 l0 -100 215 0 215 0 0 -440 0 -440 99 0 c81 0 100 3 105
16 3 9 6 207 6 440 l0 424 220 0 220 0 0 100 0 100 -540 0 -540 0 0 -100z"/>
<path d="M4690 770 l0 -540 100 0 100 0 0 185 0 185 185 0 c153 0 185 -2 185
-14 0 -8 17 -32 38 -53 21 -21 41 -46 45 -56 3 -9 11 -17 16 -17 5 0 12 -9 16
-19 3 -11 15 -23 25 -26 10 -3 22 -15 25 -26 4 -12 25 -39 46 -60 21 -21 39
-45 39 -53 0 -8 9 -18 20 -21 11 -3 20 -11 20 -16 0 -5 49 -9 110 -9 l110 0 0
25 c0 26 -9 42 -42 73 -10 9 -18 20 -18 25 0 4 -18 26 -40 48 -22 22 -40 45
-40 50 0 5 -18 27 -40 49 -22 22 -40 46 -40 54 0 8 -9 18 -20 21 -39 12 -19
25 40 25 33 0 60 4 60 9 0 5 12 12 26 15 34 9 81 56 90 90 3 14 10 26 15 26 5
0 9 94 9 210 0 121 -4 210 -9 210 -5 0 -13 14 -16 32 -8 33 -49 78 -71 78 -8
0 -14 5 -14 10 0 6 -11 10 -25 10 -14 0 -25 5 -25 10 0 7 -160 10 -460 10
l-460 0 0 -540z m874 334 c14 -5 16 -28 16 -146 0 -107 -3 -143 -14 -154 -12
-12 -71 -14 -339 -14 -287 0 -326 2 -331 16 -8 21 -8 289 1 297 8 9 646 9 667
1z"/>
<path d="M6080 770 l0 -540 100 0 100 0 0 540 0 540 -100 0 -100 0 0 -540z"/>
<path d="M6560 770 l0 -540 105 0 105 0 0 215 0 215 123 0 c115 0 126 -2 150
-23 15 -12 27 -28 27 -35 0 -14 48 -62 61 -62 4 0 11 -10 15 -22 4 -12 24 -39
45 -61 22 -21 39 -43 39 -50 0 -7 18 -28 40 -47 22 -19 40 -43 40 -52 0 -10 4
-18 9 -18 5 0 23 -13 39 -30 30 -30 32 -30 136 -30 l106 0 0 30 c0 21 -11 40
-39 67 -21 22 -41 48 -45 60 -4 12 -16 25 -26 28 -10 3 -22 15 -25 26 -4 10
-11 19 -16 19 -5 0 -9 5 -9 12 0 6 -18 28 -40 49 -22 21 -40 43 -40 48 0 6
-18 28 -40 50 -22 22 -40 43 -40 46 0 4 -18 25 -40 46 -22 22 -40 46 -40 55 0
8 14 29 30 46 17 16 30 34 30 40 0 5 20 29 45 54 25 24 45 48 45 53 0 12 58
71 70 71 5 0 12 10 16 22 4 12 24 39 45 61 22 21 39 42 39 48 0 5 18 27 40 48
30 29 40 46 40 69 l0 32 -105 0 -105 0 -39 -39 c-21 -21 -42 -48 -46 -60 -3
-12 -10 -21 -15 -21 -12 0 -70 -59 -70 -71 0 -6 -15 -25 -34 -42 -18 -18 -36
-42 -40 -54 -4 -12 -16 -25 -26 -28 -10 -3 -22 -15 -25 -26 -4 -10 -11 -19
-16 -19 -5 0 -13 -8 -16 -17 -4 -10 -17 -28 -30 -40 -20 -21 -31 -23 -143 -23
l-120 0 0 220 0 220 -105 0 -105 0 0 -540z"/>
<path d="M7840 1210 l0 -100 223 -2 222 -3 3 -437 2 -438 100 0 100 0 0 440 0
440 215 0 215 0 0 100 0 100 -540 0 -540 0 0 -100z"/>
<path d="M420 430 l0 -200 51 0 c79 0 79 1 79 208 0 203 4 192 -81 192 l-49 0
0 -200z"/>
<path d="M1060 365 l0 -135 65 0 65 0 0 135 0 135 -65 0 -65 0 0 -135z"/>
<path d="M1330 325 l0 -95 60 0 60 0 0 95 0 95 -60 0 -60 0 0 -95z"/>
</g>
</svg>
